# xmcd
#
# Track frame offsets:
#	150
#	20170
#	42240
#	60710
#	77810
#	92715
#	115210
#	132667
#	154602
#	177657
#	195852
#	216525
#	237507
#	254935
#	272352
#	289580
#	304662
#
# Disc length: 4321 seconds
#
# Revision: 1
# Processed by: cddbd v1.5.2PL0 Copyright (c) Steve Scherf et al.
# Submitted via: audiograbber 1.83.01
#
DISCID=0010df11
DTITLE=Various Artist - DREAMS [CD1]
DYEAR=1997
DGENRE=Classic Rock
TTITLE0=NIGHTS IN WHITE SATIN  -  MOODY BLUES
TTITLE1=ALL BY MYSELF  -  ERIC CARMEN (1988)
TTITLE2=THE LADY IN RED  -  CHRIS DE BURCH
TTITLE3=UP WHERE WE BELONG  -  JOE COCKER and J. WARNER
TTITLE4=FIRST TIME  -  ROBIN BECK
TTITLE5=HERE COMES THE RAIN AGAIN  -  EURYTMICS
TTITLE6=LOST IN LOVE  -  AIR SUPPLY
TTITLE7=CRY FOR HELP  -  RICK ASTLEY
TTITLE8=HYMN  -  BARCLEY JAMES HARVEST
TTITLE9=TIME AFTER TIME  -  CYNDI LAUPER
TTITLE10=YOU  -  TEN SHARP
TTITLE11=WHEN YOUR HEART IS WEAK  -  BUCK HOTKIN
TTITLE12=IT NEVER RAINS IN SOUTHERN CALIFORNIA  -  ALBERT HAMMOND
TTITLE13=CAN'T WE TRY  -  DAN HILL and VONDRA SHEPARD
TTITLE14=I'M NOT IN LOVE  -  WILL TO POWER
TTITLE15=THEME FROM LOVE STORY  -  FRANCIS LAI
TTITLE16=LILLY WAS HERE  -  GANDY BULFER - DAVE STEWART
EXTD=
EXTT0=
EXTT1=
EXTT2=
EXTT3=
EXTT4=
EXTT5=
EXTT6=
EXTT7=
EXTT8=
EXTT9=
EXTT10=
EXTT11=
EXTT12=
EXTT13=
EXTT14=
EXTT15=
EXTT16=
PLAYORDER=
